<svg xmlns="http://www.w3.org/2000/svg" viewBox="0 0 860.34 860.34"><defs><style>.fed19bb1-539d-42ee-bb8a-4652a3f0c6d4{fill:#cdcbca;}.d263adf6-1c41-4755-9a11-e5ef59d4f231{fill:#1b1514;}.\31 3e6a98d-0e40-40c6-87f1-ef79215a4c9f{fill:#a9201e;}</style></defs><title>Logo</title><g id="fe9ee464-9f5a-407a-b5d8-22ce05d65dba" data-name="Logo"><polygon class="fed19bb1-539d-42ee-bb8a-4652a3f0c6d4" points="414.77 476.77 404.04 476.77 443.78 386.3 483.51 476.77 472.05 476.77 461.72 451.62 435.28 451.62 438.14 443.24 458.25 443.24 443.33 407.02 414.77 476.77"/><polygon class="fed19bb1-539d-42ee-bb8a-4652a3f0c6d4" points="508.95 396.29 508.95 476.21 498.62 476.21 498.62 396.29 508.95 396.29"/><path class="fed19bb1-539d-42ee-bb8a-4652a3f0c6d4" d="M672.35,473.41v-9.5a80.57,80.57,0,0,0,27.16,4.48q20.62,0,20.62-15.1,0-12.84-15.2-12.85H694.64q-25.09,0-25.1-21.8,0-22.91,32.15-22.92a96.5,96.5,0,0,1,26,3.36v9.5a73.89,73.89,0,0,0-26-4.48q-21.8,0-21.8,14.53,0,12.85,14.75,12.85h10.29q25.53,0,25.54,21.8,0,23.48-31,23.48A105.31,105.31,0,0,1,672.35,473.41Z"/><path class="fed19bb1-539d-42ee-bb8a-4652a3f0c6d4" d="M525.16,476.21V396.29h34.09q22.81,0,22.8,19.17,0,15.59-22.29,23.08l27.44,37.67H573.55l-25.42-35.94v-6.76Q571,429.87,571,415.9q0-11.06-12.75-11.06H535.5v71.37Z"/><polygon class="fed19bb1-539d-42ee-bb8a-4652a3f0c6d4" points="127.13 476.21 127.13 396.29 137.47 396.29 186.37 460.67 186.37 396.29 196.15 396.29 196.15 476.21 185.81 476.21 136.91 411.26 136.91 476.21 127.13 476.21"/><path class="fed19bb1-539d-42ee-bb8a-4652a3f0c6d4" d="M275.51,473.08a57.89,57.89,0,0,1-20.85,3.69q-43.42,0-43.42-41.64,0-39.4,41.92-39.41a72,72,0,0,1,22.35,3.36V408a59.52,59.52,0,0,0-21.24-3.91q-32.69,0-32.69,31,0,33.25,32.19,33.26a54.56,54.56,0,0,0,11.4-1.35V439.88h10.33v33.2Z"/><polygon class="fed19bb1-539d-42ee-bb8a-4652a3f0c6d4" points="290.62 440.44 317.73 440.44 317.73 432.06 290.62 432.06 290.62 440.44"/><polygon class="fed19bb1-539d-42ee-bb8a-4652a3f0c6d4" points="636.73 430.61 639.59 438.99 612.63 438.99 612.63 467.83 654.44 467.83 654.44 476.21 602.3 476.21 602.3 396.29 654.44 396.29 654.44 404.67 612.63 404.67 612.63 430.62 636.73 430.61"/><path class="fed19bb1-539d-42ee-bb8a-4652a3f0c6d4" d="M332.82,476.44V396.06H359q12.59,0,19.71,5.44t7.12,16.31a14.8,14.8,0,0,1-3.42,9.58,20.27,20.27,0,0,1-9,6.27,18.57,18.57,0,0,1,11.45,7.12,21.07,21.07,0,0,1,4.17,13q0,11-7.15,16.86t-19.4,5.82Zm9.42-46.2h18.35a15.45,15.45,0,0,0,10.3-3.34q4-3.34,4-9.3,0-6.51-4.29-9.74t-12.34-3.23h-16Zm0,8.56v29.09h19.62q7.71,0,12-3.66t4.31-10.36q0-7-3.6-11.06t-11.07-4Z"/><polygon class="d263adf6-1c41-4755-9a11-e5ef59d4f231" points="417.51 474.04 406.78 474.04 446.51 383.57 486.25 474.04 474.79 474.04 464.45 448.88 438.02 448.88 440.87 440.5 460.99 440.5 446.07 404.28 417.51 474.04"/><polygon class="d263adf6-1c41-4755-9a11-e5ef59d4f231" points="511.69 393.55 511.69 473.47 501.35 473.47 501.35 393.55 511.69 393.55"/><path class="d263adf6-1c41-4755-9a11-e5ef59d4f231" d="M675.08,470.68v-9.5a80.57,80.57,0,0,0,27.16,4.48q20.62,0,20.62-15.1,0-12.84-15.2-12.85H697.38q-25.09,0-25.1-21.8,0-22.91,32.15-22.92a96.5,96.5,0,0,1,26,3.36v9.5a73.89,73.89,0,0,0-26-4.48q-21.8,0-21.8,14.53,0,12.85,14.75,12.85h10.29q25.53,0,25.54,21.8,0,23.48-31,23.48A105.31,105.31,0,0,1,675.08,470.68Z"/><path class="d263adf6-1c41-4755-9a11-e5ef59d4f231" d="M527.89,473.47V393.55H562q22.81,0,22.8,19.17,0,15.59-22.29,23.08l27.44,37.67H576.29l-25.42-35.94v-6.76q22.91-3.64,22.91-17.61,0-11.06-12.75-11.06h-22.8v71.37Z"/><polygon class="13e6a98d-0e40-40c6-87f1-ef79215a4c9f" points="129.87 473.47 129.87 393.55 140.2 393.55 189.1 457.94 189.1 393.55 198.89 393.55 198.89 473.47 188.55 473.47 139.64 408.53 139.64 473.47 129.87 473.47"/><path class="13e6a98d-0e40-40c6-87f1-ef79215a4c9f" d="M278.25,470.35A57.89,57.89,0,0,1,257.4,474Q214,474,214,432.4,214,393,255.89,393a72,72,0,0,1,22.35,3.36v8.94A59.52,59.52,0,0,0,257,401.38q-32.69,0-32.69,31,0,33.25,32.19,33.26a54.56,54.56,0,0,0,11.4-1.35V437.15h10.33v33.2Z"/><polygon class="13e6a98d-0e40-40c6-87f1-ef79215a4c9f" points="293.35 437.7 320.46 437.7 320.46 429.32 293.35 429.32 293.35 437.7"/><polygon class="d263adf6-1c41-4755-9a11-e5ef59d4f231" points="639.47 427.88 642.32 436.26 615.37 436.26 615.37 465.09 657.17 465.09 657.17 473.47 605.03 473.47 605.03 393.55 657.17 393.55 657.17 401.93 615.37 401.93 615.37 427.88 639.47 427.88"/><path class="d263adf6-1c41-4755-9a11-e5ef59d4f231" d="M335.55,473.7V393.33h26.22q12.59,0,19.71,5.44t7.12,16.31a14.8,14.8,0,0,1-3.42,9.58,20.27,20.27,0,0,1-9,6.27A18.57,18.57,0,0,1,387.63,438a21.07,21.07,0,0,1,4.17,13q0,11-7.15,16.86t-19.4,5.82ZM345,427.5h18.35a15.45,15.45,0,0,0,10.3-3.34q4-3.34,4-9.3,0-6.51-4.29-9.74T361,401.88H345Zm0,8.56v29.09h19.62q7.71,0,12-3.66t4.31-10.36q0-7-3.6-11.06t-11.07-4Z"/></g></svg>